<svg xmlns="http://www.w3.org/2000/svg" viewBox="0 0 512 512"><title>Artboard 128</title><g id="Fingerprint"><circle cx="256" cy="256" r="213.33333" style="fill:#91edf8"/><ellipse cx="213.33333" cy="213.33333" rx="138.89966" ry="116.0745" transform="translate(-88.36556 213.33333) rotate(-45)" style="fill:#d7f8f9"/><path d="M245.33333,341.33333A10.66053,10.66053,0,0,0,234.66667,352v64A10.66667,10.66667,0,1,0,256,416V352A10.66054,10.66054,0,0,0,245.33333,341.33333ZM192,256a64.00833,64.00833,0,0,1,127.35417-9.17708,10.67143,10.67143,0,0,0,21.125-3.04167c-6-41.67708-42.33334-73.11458-84.47917-73.11458A85.42441,85.42441,0,0,0,170.66667,256c0,19.90625,7.02083,35.52083,13.20833,49.30208C188.22917,315,192,323.36458,192,330.66667a10.66667,10.66667,0,0,0,21.33333,0c0-11.875-4.85416-22.67709-10-34.10417C197.77083,284.15625,192,271.33333,192,256Zm106.66667,0a42.66667,42.66667,0,0,0-85.33334,0,10.66667,10.66667,0,0,0,21.33334,0,21.33333,21.33333,0,0,1,42.66666,0c0,11.08333-7.39583,16.16667-19.45833,23.55208-10.33333,6.33334-23.20833,14.21875-23.20833,29.78125a10.66667,10.66667,0,1,0,21.33333,0c0-3.375,4.91667-6.625,13.02083-11.58333C281.52083,290.08333,298.66667,279.59375,298.66667,256Zm-96,106.66667A10.66053,10.66053,0,0,0,192,373.33333V416a10.66667,10.66667,0,1,0,21.33333,0V373.33333A10.66053,10.66053,0,0,0,202.66667,362.66667ZM106.66667,256c0-78.40625,61.20833-143.85417,139.39583-149,3.27064-.22917,6.60417-.33333,9.9375-.33333a10.66667,10.66667,0,1,0,0-21.33334q-5.75,0-11.375.375C155.3125,91.59375,85.33333,166.38542,85.33333,256a171.10365,171.10365,0,0,0,19.6875,79.66667,10.68464,10.68464,0,0,0,9.4375,5.67708,10.55527,10.55527,0,0,0,4.97917-1.23958,10.67477,10.67477,0,0,0,4.45833-14.41667A149.48616,149.48616,0,0,1,106.66667,256Zm42.66666,0c0-3.69792.1875-7.33333.54167-10.91667A105.9332,105.9332,0,0,1,173.72917,188.125a10.67651,10.67651,0,0,0-16.45834-13.60417,127.2359,127.2359,0,0,0-28.60416,68.41667A128.86922,128.86922,0,0,0,128,256c0,30.42708,6.625,45.26042,12.47917,58.35417,4.75,10.61458,8.85416,19.78125,8.85416,37.64583v21.33333a10.66667,10.66667,0,0,0,21.33334,0V352c0-22.41667-5.4375-34.59375-10.70834-46.35417C154.5,293.41667,149.33333,281.875,149.33333,256Zm187.125-150.55208a10.67221,10.67221,0,0,0-10.08333,18.8125A149.23221,149.23221,0,0,1,405.33333,256v32a10.66667,10.66667,0,0,0,21.33334,0V256A170.54018,170.54018,0,0,0,336.45833,105.44792ZM387.125,344.45833c-2.5,2.5-24.45833,25.17709-24.45833,50.20834a10.66667,10.66667,0,0,0,21.33333,0c0-13.76042,13.14583-30.03125,18.22917-35.13542A10.66924,10.66924,0,0,0,387.125,344.45833ZM256,128a128.24322,128.24322,0,0,0-61.375,15.64583,10.66612,10.66612,0,0,0,10.25,18.70834A106.69538,106.69538,0,0,1,337.9375,324.32292c-17.72917,23.875-17.9375,48-17.9375,49.01041v21.33334a10.66667,10.66667,0,0,0,21.33333,0V373.39583a68.27193,68.27193,0,0,1,13.39584-35.92708A128.00274,128.00274,0,0,0,256,128Zm53.33333,192a10.67188,10.67188,0,0,1-7.54166-18.21875A67.72056,67.72056,0,0,0,315.125,283.36458a10.66429,10.66429,0,0,1,19.20833,9.27084,89.46413,89.46413,0,0,1-17.45833,24.25A10.665,10.665,0,0,1,309.33333,320ZM288,405.33333a10.66053,10.66053,0,0,1-10.66667-10.66666V352a10.66667,10.66667,0,0,1,21.33334,0v42.66667A10.66053,10.66053,0,0,1,288,405.33333Z" style="fill:#2c2f53"/></g></svg>